<?xml version="1.0" encoding="iso-8859-1"?>
<!-- Uploaded to: SVG Repo, www.svgrepo.com, Generator: SVG Repo Mixer Tools -->
<svg fill="red" height="800px" width="800px" version="1.1" id="Layer_1" xmlns="http://www.w3.org/2000/svg" xmlns:xlink="http://www.w3.org/1999/xlink" 
	 viewBox="0 0 512 512" xml:space="preserve">
<g>
	<g>
		<path d="M256,204.8c-28.233,0-51.2,22.967-51.2,51.2c0,28.232,22.967,51.199,51.2,51.199c28.233,0,51.2-22.967,51.2-51.199
			C307.2,227.767,284.233,204.8,256,204.8z M256,290.133c-18.825,0-34.133-15.306-34.133-34.133
			c0-18.821,15.308-34.133,34.133-34.133c18.825,0,34.133,15.313,34.133,34.133C290.133,274.827,274.825,290.133,256,290.133z"/>
	</g>
</g>
<g>
	<g>
		<path d="M503.467,247.356h-34.319c-4.385-110.933-92.692-200.119-203.625-204.503V8.534c0-4.712-3.817-8.533-8.533-8.533
			c-4.717,0-8.533,3.821-8.533,8.533v34.319c-110.933,4.384-201.221,93.57-205.604,204.503H8.533c-4.717,0-8.533,3.821-8.533,8.533
			c0,4.713,3.817,8.533,8.533,8.533h34.319c4.383,110.933,94.671,200.342,205.604,204.725v34.319c0,4.719,3.817,8.533,8.533,8.533
			c4.717,0,8.533-3.815,8.533-8.533v-34.319c110.933-4.383,199.24-93.792,203.625-204.725h34.319c4.717,0,8.533-3.821,8.533-8.533
			C512,251.177,508.183,247.356,503.467,247.356z M265.523,102.649c76.8,4.29,139.537,67.906,143.827,144.706h-59.889
			c-4.073-44.8-39.138-80.744-83.938-84.817V102.649z M409.35,264.422c-4.289,78.933-67.027,140.64-143.827,144.929v-59.89
			c44.8-4.073,79.865-40.24,83.938-85.04H409.35z M248.456,59.931v25.62C160.99,89.872,89.871,159.889,85.55,247.356H59.929
			C64.292,147.089,146.056,64.293,248.456,59.931z M248.456,102.649v59.89c-46.933,4.073-81.846,40.017-85.919,84.817h-59.89
			C106.94,170.556,169.523,106.939,248.456,102.649z M248.456,452.07c-102.4-4.363-184.164-85.248-188.527-187.648H85.55
			c4.321,87.467,75.44,157.706,162.906,162.029V452.07z M248.456,409.352c-78.933-4.289-141.517-65.996-145.808-144.929h59.89
			c4.073,44.8,38.985,80.967,85.919,85.04V409.352z M256,332.8c-42.35,0-76.8-34.45-76.8-76.799c0-42.346,34.45-76.8,76.8-76.8
			c42.35,0,76.8,34.454,76.8,76.8C332.8,298.349,298.35,332.8,256,332.8z M265.523,452.07v-25.619
			c85.333-4.323,156.604-74.563,160.927-162.029h25.619C447.706,366.822,365.79,447.708,265.523,452.07z M426.45,247.356
			c-4.323-87.467-75.594-157.483-160.927-161.805v-25.62c100.267,4.363,182.183,87.158,186.546,187.425H426.45z"/>
	</g>
</g>
</svg>
